<svg id="Layer_1" data-name="Layer 1" xmlns="http://www.w3.org/2000/svg" viewBox="0 0 944 250"><defs><style>.cls-1{fill:#fff;}</style></defs><title>savant-white</title><path class="cls-1" d="M792.5,64.85V75.07h49.19v111h37.76v-111h49.19V64.85Zm-72.41,118c1.91,2.43,3.46,3.29,6.93,3.29h36.89V64.85H752.66l.34,100h-.69L678.87,68.14c-1.91-2.42-3.47-3.29-6.93-3.29H625.17v2.6l5.54.52c2.77.17,5,2.77,5,6.76V186.1h11.43l-.35-100.81h.69Zm-164-1.21c1.21,3.12,3.11,4.5,6.06,4.5H607.5v-2.6c-6.75-.86-9-2.25-13.16-11.95L551.21,69.18c-1.22-2.94-3.12-4.33-6.76-4.33H496.82v2.6c8.14,1,10,2.42,10,5.37a15.83,15.83,0,0,1-1.56,5.72L458.88,186.1H471l13-30.48h61.66Zm-14.55-36.2H488.33L515.18,82h.69ZM402.93,186.1,455.42,64.85H443.29L399.12,169h-.69L358.25,69.36c-1.22-3.12-3.12-4.51-6.07-4.51H306.8v2.6c7.1.69,9,2.25,13.16,12l43.13,102.37c1.22,2.95,3.12,4.33,6.76,4.33Zm-142.55-4.5c1.21,3.12,3.12,4.5,6.06,4.5h45.38v-2.6c-6.75-.86-9-2.25-13.16-11.95L255.53,69.18c-1.21-2.94-3.12-4.33-6.76-4.33H201.14v2.6c8.14,1,10.05,2.42,10.05,5.37a16,16,0,0,1-1.56,5.72L163.21,186.1h12.12l13-30.48H250Zm-14.55-36.2H192.65L219.5,82h.69ZM83.53,189.05c41.57,0,63.39-20.27,63.39-41.4,0-18.88-15.24-30.31-53.52-37.94-30.49-6.06-36.72-13.85-36.72-22.86,0-10.39,9.7-18,26.67-18,21,0,37.94,9.36,51.79,27.2h1.39V82.69c0-3.64-.69-5.37-3.81-7.27-13.51-8.15-29.28-14.55-50.41-14.55-36,0-57.51,18.36-57.51,40.7,0,21.66,19.41,30.66,57.51,38.63,24.25,5,32.05,12.3,32.05,23.21,0,11.09-10.92,17.67-30.14,17.67-20.61,0-43-9.18-59.93-31.53H22.9l1.56,16.81c.34,3.63,1.38,5.36,4,6.92a105,105,0,0,0,55.09,15.77"/></svg>