<svg id="Layer_1" data-name="Layer 1" xmlns="http://www.w3.org/2000/svg" xmlns:xlink="http://www.w3.org/1999/xlink" viewBox="0 0 512 512"><defs><style>.cls-1{fill:#fff;}.cls-1,.cls-6{fill-rule:evenodd;}.cls-2{fill:none;}.cls-3{clip-path:url(#clip-path);}.cls-4{fill:url(#radial-gradient);}.cls-5{mask:url(#mask);}.cls-6{fill:#dbd9d6;}</style><clipPath id="clip-path"><rect class="cls-2" x="0.4" y="0.53" width="511.2" height="511.2" rx="113.71"/></clipPath><radialGradient id="radial-gradient" cx="-498.31" cy="382.46" r="1.73" gradientTransform="matrix(512, 0, 0, -512, 255388.51, 196736)" gradientUnits="userSpaceOnUse"><stop offset="0" stop-color="#696057"/><stop offset="1" stop-color="#382e2b"/></radialGradient><mask id="mask" x="125.13" y="121" width="262" height="270" maskUnits="userSpaceOnUse"><g id="mask-3"><polygon id="path-2" class="cls-1" points="125.13 121 387.13 121 387.13 391 125.13 391 125.13 121"/></g></mask></defs><title>savant-pro-app</title><g class="cls-3"><g id="Smooth-Corners"><rect id="Rectangle" class="cls-4" x="0.13" width="512" height="512"/><g id="Group-3"><g class="cls-5"><path id="Fill-1" class="cls-6" d="M253.2,391c87.82,0,133.93-42.69,133.93-87.2,0-39.77-32.2-63.85-113.07-79.91-64.41-12.77-77.58-29.19-77.58-48.16,0-21.89,20.49-37.95,56.36-37.95,44.27,0,80.13,19.71,109.41,57.29h2.93V167c0-7.66-1.47-11.31-8.05-15.32C328.58,134.5,295.28,121,250.64,121c-76.11,0-121.49,38.68-121.49,85.74,0,45.61,41,64.59,121.49,81.37,51.23,10.58,67.69,25.9,67.69,48.89,0,23.35-23.05,37.22-63.67,37.22-43.54,0-90.75-19.34-126.6-66.41h-2.93l3.29,35.39c.73,7.66,2.93,11.31,8.42,14.6C170.5,378.23,209.65,391,253.2,391"/></g></g></g></g></svg>